/* XPM */
static char *_534975345009[] = {
/* columns rows colors chars-per-pixel */
"32 32 78 1 ",
"  c #000100",
". c #040A05",
"X c #080F07",
"o c #061007",
"O c #071008",
"+ c #091309",
"@ c #091A0B",
"# c #0D220F",
"$ c #0D2311",
"% c #0F2912",
"& c #0E2419",
"* c #112512",
"= c #132E15",
"- c #132C1B",
"; c #0C301A",
": c #123216",
"> c #143719",
", c #18371B",
"< c #153C1B",
"1 c #193B1E",
"2 c #073E23",
"3 c #15421D",
"4 c #19441F",
"5 c #19481F",
"6 c #0D4E25",
"7 c #054A29",
"8 c #1B4321",
"9 c #164926",
"0 c #1B4C22",
"q c #164D29",
"w c #194D28",
"e c #06522E",
"r c #1C5224",
"t c #1D5D26",
"y c #165529",
"u c #1A5228",
"i c #165A2B",
"p c #1F5F28",
"a c #045B32",
"s c #205E28",
"d c #1E6027",
"f c #056638",
"g c #046B3A",
"h c #126731",
"j c #136A32",
"k c #0D7337",
"l c #0C7738",
"z c #0C7A3A",
"x c #107437",
"c c #22622A",
"v c #246A2E",
"b c #277331",
"n c #2B7E36",
"m c #07843C",
"M c #0A843D",
"N c #09893F",
"B c #2C8237",
"V c #2C8438",
"C c #2E8A3A",
"Z c #2F913C",
"A c #31943E",
"S c #098C41",
"D c #0B9444",
"F c #069A46",
"G c #0A9946",
"H c #099D48",
"J c #329B41",
"K c #34A343",
"L c #37AD47",
"P c #38AF48",
"I c #37B047",
"U c #37B048",
"Y c #39B34A",
"T c #3BBC4D",
"R c #3CC14F",
"E c #3EC450",
"W c #3FC852",
"Q c None",
/* pixels */
"QQQQQQQQQQQQQQQ1:QQQQQQQQQQQQQQQ",
"QQQQQQQQQQQQQ@r0BcQQQQQQQQQQQQQQ",
"QQQQQQQQQQQQ5JC 5WZ5QQQQQQQQQQQQ",
"QQQQQQQQQQ>VTTYvARTYB>QQQQQQQQQQ",
"QQQQQQQQ%bYTTTB=#nTTTYv$QQQQQQQQ",
"QQQQQQ+sKTTTZ:    :ATTTKtOQQQQQQ",
"QQQQQ5ATTTK5        5KTTTA5QQQQQ",
"QQQ4CTTRPs.     .@O  .sPTTTC1QQQ",
"QQ<3dRTb+       3iu*   @bYTr5<QQ",
"QQ0.#C%        +uFz8     =Vo#0QQ",
"QQdKJ#         *hHS8      @ALrQQ",
"QQtRY@        @9SGx4.     @YWrQQ",
"QQtTL@       O1zGG6331@   @LRrQQ",
"QQtRL@  *11118kGDDMMNku.  @LRrQQ",
"QQtRI@  5efa-kGDDDGGDGi+  @LRrQQ",
"QQtRL@  <agg&zGDDDDSGM0.  @PRrQQ",
"QQtRL@ .<agf&zGDDDDDGM8   @LRrQQ",
"QQtTI@  <afg*zGDDDDDGx,   +PRrQQ",
"QQtRI@  37;e&zGSSDDDGj=   @PRrQQ",
"QQtTL@  372a&zHGDDDDSu+   @PRrQQ",
"QQtRL@  <qq98uhzSDDGlw.   @YErQQ",
"QQdYL@   +OO.X#,0iitw#    @LTrQQ",
"QQr@:v          .+++.    .c@=rQQ",
"QQ<$4EK0                5KT%=1QQ",
"QQQ>CTRTA=            :ATTTV>QQQ",
"QQQQQrJTRTn@        @nTRRA0QQQQQ",
"QQQQQQ@cKTRYv.    .vYRRKp+QQQQQQ",
"QQQQQQQQ=bYTRLr..rLRTYb$QQQQQQQQ",
"QQQQQQQQQQ1CTTEnnERTV>QQQQQQQQQQ",
"QQQQQQQQQQQQ0JP.@TA0QQQQQQQQQQQQ",
"QQQQQQQQQQQQQ@s:3cOQQQQQQQQQQQQQ",
"QQQQQQQQQQQQQQQ>>QQQQQQQQQQQQQQQ"
};
