/* XPM */
static char *_534975285409[] = {
/* columns rows colors chars-per-pixel */
"16 16 126 2 ",
"   c black",
".  c #010000",
"X  c #000100",
"o  c #020100",
"O  c #000200",
"+  c #010201",
"@  c #020301",
"#  c #070000",
"$  c #040301",
"%  c #050603",
"&  c #070A05",
"*  c #091108",
"=  c #091A0B",
"-  c #091B0B",
";  c #0B1C0E",
":  c #0D1F0F",
">  c #0C1F10",
",  c #0B220F",
"<  c #0E2010",
"1  c #0D2210",
"2  c #0C2710",
"3  c #0D2711",
"4  c #0D2811",
"5  c #0D2813",
"6  c #0F2C12",
"7  c #0E2A14",
"8  c #0F2F19",
"9  c #102E14",
"0  c #112E14",
"q  c #123116",
"w  c #133217",
"e  c #133518",
"r  c #103719",
"t  c #15391A",
"y  c #153A1A",
"u  c #143D19",
"i  c #143D1A",
"p  c #17481E",
"a  c #18491E",
"s  c #0E4924",
"d  c #0A4E26",
"f  c #094729",
"g  c #134922",
"h  c #104E25",
"j  c #1A4D21",
"k  c #1B4F22",
"l  c #0E5229",
"z  c #0C532A",
"x  c #0F5B2E",
"c  c #115026",
"v  c #1B5223",
"b  c #1C5423",
"n  c #1E5F27",
"m  c #10582C",
"M  c #035C34",
"N  c #11602C",
"B  c #12612E",
"V  c #13642F",
"C  c #1F6028",
"Z  c #1F6128",
"A  c #1F6429",
"S  c #086036",
"D  c #0D6A31",
"F  c #106F34",
"G  c #0F7436",
"H  c #117A39",
"J  c #117C3A",
"K  c #206529",
"L  c #22652B",
"P  c #22662B",
"I  c #216A2B",
"U  c #216C2C",
"Y  c #226E2C",
"T  c #226E2D",
"R  c #246E2E",
"E  c #23702D",
"W  c #23712E",
"Q  c #25702F",
"!  c #267330",
"~  c #277732",
"^  c #277832",
"/  c #287933",
"(  c #287A33",
")  c #287B33",
"_  c #287C33",
"`  c #0F893F",
"'  c #2C8638",
"]  c #2D8B39",
"[  c #2D8A3A",
"{  c #2D8C3A",
"}  c #2D8D3A",
"|  c #2E8D3B",
" . c #2E903B",
".. c #2E913C",
"X. c #2F913C",
"o. c #2F923C",
"O. c #2F923D",
"+. c #2F943D",
"@. c #2F963D",
"#. c #30953E",
"$. c #319B3F",
"%. c #319C3F",
"&. c #0B9042",
"*. c #0B9243",
"=. c #0A9343",
"-. c #0C9143",
";. c #0A9745",
":. c #0B9845",
">. c #099946",
",. c #0C9947",
"<. c #0A9C47",
"1. c #089D48",
"2. c #0A9F48",
"3. c #319E40",
"4. c #329F41",
"5. c #34A443",
"6. c #35A544",
"7. c #35A644",
"8. c #36A946",
"9. c #36AA46",
"0. c #39B349",
"q. c #39B44A",
"w. c #3AB64B",
"e. c #3BBA4C",
"r. c #3BBB4C",
"t. c None",
/* pixels */
"t.t.t.t.t.t.t.t k t.t.t.t.t.t.t.",
"t.t.t.t.t.k 7.L [ 7.k t.t.t.t.t.",
"t.t.t.t.} e.o.6 2 o.e.[ t.t.t.t.",
"t.t.) q.5.u         u 5.0.) t.t.",
"t.9 ^ C       $ V c     C Q q t.",
"t.} n   @     : *.N #     n ' t.",
"t.4.T   ; 1 > G ,.D N ,   W #.t.",
"t.$.I   l S m <.*.>.,.r   T o.t.",
"t.%.I   d M l ,.-.=.` 1   Y o.t.",
"t.%.T   s f m 1.>.1.J *   Q +.t.",
"t.+.A   7 8 7 h F J g $   L } t.",
"t.q Q p         $ &     a P q t.",
"t.t.) 0. .4         2 o.q.~ t.t.",
"t.t.t.t.#.q.) - = _ w. .t.t.t.t.",
"t.t.t.t.t.b 8.~ / 8.v t.t.t.t.t.",
"t.t.t.t.t.t.t.e t t.t.t.t.t.t.t."
};
