/* XPM */
static char *_534975367784[] = {
/* columns rows colors chars-per-pixel */
"64 64 109 2 ",
"   c #000100",
".  c #050B05",
"X  c #070D08",
"o  c #080F09",
"O  c #10060B",
"+  c #120C0E",
"@  c #051207",
"#  c #061409",
"$  c #09140A",
"%  c #0C1B0E",
"&  c #091C10",
"*  c #041C13",
"=  c #0D220F",
"-  c #0E2312",
";  c #0D2911",
":  c #042C1C",
">  c #0B2D1B",
",  c #102713",
"<  c #182516",
"1  c #122C15",
"2  c #112E18",
"3  c #0E3315",
"4  c #07331E",
"5  c #0D331B",
"6  c #073B1F",
"7  c #0B3B1E",
"8  c #133217",
"9  c #143419",
"0  c #19351A",
"q  c #173A1B",
"w  c #193C1D",
"e  c #17401C",
"r  c #1A421F",
"t  c #074121",
"y  c #094423",
"u  c #074C26",
"i  c #094C26",
"p  c #034729",
"a  c #054B2B",
"s  c #1C4521",
"d  c #1D4B23",
"f  c #065127",
"g  c #01522E",
"h  c #0A532A",
"j  c #065A2A",
"k  c #0A592B",
"l  c #1D5324",
"z  c #1F5A27",
"x  c #105E2F",
"c  c #035631",
"v  c #075D34",
"b  c #204622",
"n  c #224E26",
"m  c #225426",
"M  c #215827",
"N  c #245628",
"B  c #235C2A",
"V  c #285C2D",
"C  c #076437",
"Z  c #096631",
"A  c #0B6D34",
"S  c #056738",
"D  c #056C3B",
"F  c #0D7135",
"G  c #06723E",
"H  c #0B7738",
"J  c #0C7C3B",
"K  c #25642D",
"L  c #29652F",
"P  c #25692E",
"I  c #29682F",
"U  c #296530",
"Y  c #276B30",
"T  c #2A6B31",
"R  c #277131",
"E  c #2A7333",
"W  c #2B7B36",
"Q  c #2E7E39",
"!  c #317C3A",
"~  c #077640",
"^  c #0A833D",
"/  c #098A3F",
"(  c #2D8037",
")  c #2E8339",
"_  c #2F8C3C",
"`  c #31853C",
"'  c #318C3D",
"]  c #32913E",
"[  c #0D8740",
"{  c #0C8D42",
"}  c #0B9444",
"|  c #0B9A46",
" . c #0C9D48",
".. c #349540",
"X. c #339C42",
"o. c #0DA44B",
"O. c #36A345",
"+. c #38A546",
"@. c #37AA47",
"#. c #38A947",
"$. c #39A248",
"%. c #39AD49",
"&. c #37B148",
"*. c #39B449",
"=. c #3BBC4C",
"-. c #3CC14F",
";. c #3EC451",
":. c #40C552",
">. c None",
/* pixels */
">.>.>.>.>.>.>.>.>.>.>.>.>.>.>.>.>.>.>.>.>.>.>.>.>.>.>.>.>.>.>.    >.>.>.>.>.>.>.>.>.>.>.>.>.>.>.>.>.>.>.>.>.>.>.>.>.>.>.>.>.>.>.",
">.>.>.>.>.>.>.>.>.>.>.>.>.>.>.>.>.>.>.>.>.>.>.>.>.>.>.>.>.>.. M s . >.>.>.>.>.>.>.>.>.>.>.>.>.>.>.>.>.>.>.>.>.>.>.>.>.>.>.>.>.>.",
">.>.>.>.>.>.>.>.>.>.>.>.>.>.>.>.>.>.>.>.>.>.>.>.>.>.>.>.  w ' O.=.' 2   >.>.>.>.>.>.>.>.>.>.>.>.>.>.>.>.>.>.>.>.>.>.>.>.>.>.>.>.",
">.>.>.>.>.>.>.>.>.>.>.>.>.>.>.>.>.>.>.>.>.>.>.>.>.>.  , ` X.=   0 =.=.E %   >.>.>.>.>.>.>.>.>.>.>.>.>.>.>.>.>.>.>.>.>.>.>.>.>.>.",
">.>.>.>.>.>.>.>.>.>.>.>.>.>.>.>.>.>.>.>.>.>.>.>.  $ K *.:.e       R =.=.*.V o   >.>.>.>.>.>.>.>.>.>.>.>.>.>.>.>.>.>.>.>.>.>.>.>.",
">.>.>.>.>.>.>.>.>.>.>.>.>.>.>.>.>.>.>.>.>.>.>.. d #.-.*.=.d       W -.&.=.-.X.s . >.>.>.>.>.>.>.>.>.>.>.>.>.>.>.>.>.>.>.>.>.>.>.",
">.>.>.>.>.>.>.>.>.>.>.>.>.>.>.>.>.>.>.>.>.  q ] ;.*.*.*.=.O.8 $ M *.*.&.*.&.=.;.' 9   >.>.>.>.>.>.>.>.>.>.>.>.>.>.>.>.>.>.>.>.>.",
">.>.>.>.>.>.>.>.>.>.>.>.>.>.>.>.>.>.>.  , ( =.=.*.*.*.*.&.=.-...#.-.*.*.*.*.*.*.=.=.E %   >.>.>.>.>.>.>.>.>.>.>.>.>.>.>.>.>.>.>.",
">.>.>.>.>.>.>.>.>.>.>.>.>.>.>.>.>.  $ K *.-.*.*.*.*.*.*.=.%.P $ $ K *.=.*.*.*.*.*.*.-.%.B o   >.>.>.>.>.>.>.>.>.>.>.>.>.>.>.>.>.",
">.>.>.>.>.>.>.>.>.>.>.>.>.>.>.  . l #.-.*.*.*.*.*.*.=.=.Q -         - Q =.=.*.*.*.*.*.*.-.X.s . >.>.>.>.>.>.>.>.>.>.>.>.>.>.>.>.",
">.>.>.>.>.>.>.>.>.>.>.>.>.>.  q ] -.=.*.*.*.*.&.=.=.] 9                 9 ] =.=.&.&.*.*.*.=.;.' 9   >.>.>.>.>.>.>.>.>.>.>.>.>.>.",
">.>.>.>.>.>.>.>.>.>.>.>.  , ( =.=.&.*.*.*.*.*.-.X.d                         s O.-.=.*.*.*.*.*.=.=.E %   >.>.>.>.>.>.>.>.>.>.>.>.",
">.>.>.>.>.>.>.>.>.>.  $ P *.=.*.*.*.*.*.*.=.%.B X                             . B %.=.*.*.*.*.*.*.=.*.B @   >.>.>.>.>.>.>.>.>.>.",
">.>.>.>.>.>.>.>.  . l +.;.&.*.*.*.*.*.=.=.R %                                     % R *.=.*.*.*.*.*.*.;.O.s . >.>.>.>.>.>.>.>.>.",
">.>.>.>.>.>.>.  9 ..-.=.&.*.*.*.*.=.=.` 1                                             1 ` =.=.*.*.*.*.*.=.-.' 1   >.>.>.>.>.>.>.",
">.>.>.>.>.  1 ' :.=.*.*.*.*.&.=.=...w                             % d r 1                 r ..=.=.&.*.*.*.&.-.:.( -   >.>.>.>.>.",
">.>.>.>.  K ] l K *.*.*.*.*.=.#.l .                             - U w w N T $               . l +.-.*.&.&.=.O.l K O.V   >.>.>.>.",
">.>.>.>.# ] %     M =.*.=.*.K $                                 V 1 C A 6 q E .                 # K *.-.*.*.1     q X.. >.>.>.>.",
">.>.>.>.# K       1 =.=.W -                                   - n i o.| o.t m w                     % W =.+..     . ` . >.>.>.>.",
">.>.>.>.@ _ =     K ..8                                       q w Z | { | H q B                         9 ] w     r ... >.>.>.>.",
">.>.>.>.. O.O.z W *.;                                         d q ^ } } | ^ 0 V                           3 %.K U %.X.  >.>.>.>.",
">.>.>.>.. X.-.-.-.*.;                                       & V 5 } } } } ^ 0 K                           ; *.-.=.=.X.X >.>.>.>.",
">.>.>.>.@ X.*.&.*.*.;                                     . U < A | } } | Z r m                           ; *.*.*.=.... >.>.>.>.",
">.>.>.>.@ X.=.&.*.*.;                                     B 0 h  .} } {  .7 K ,                           ; *.*.*.=.... >.>.>.>.",
">.>.>.>.@ X.=.*.*.=.;                                   d b 7  .} } { | H - ` M l z M 9                   ; *.*.*.=...X >.>.>.>.",
">.>.>.>.@ X.*.&.*.*.;                                 s m > | } } } } | h # ; 3 3 3 9 m U .               ; =.*.&.=...X >.>.>.>.",
">.>.>.>.. X.=.*.=.*.;             % s d s s s d , . l N - { | { } } } } { / { ^ / ^ ^ 4 b K               ; =.*.&.=.X.  >.>.>.>.",
">.>.>.>.@ X.=.&.*.*.;           % E s r s s s w V ! w > [ | } } } } } } } } | } } } |  .> T %             ; *.*.&.=.X.. >.>.>.>.",
">.>.>.>.. O.=.&.*.*.;           M w : a a a a p & < y | } } } } | } } } } } } } } } {  .j r 9             ; *.*.*.=.X.  >.>.>.>.",
">.>.>.>.@ ] =.*.*.*.;           l 3 j G D D D ~ > + H  .{ } } } } } } } } } } } } } }  .u m 3             ; *.*.%.=.X.X >.>.>.>.",
">.>.>.>.@ X.=.&.=.*.;           l 3 g D S S S D > + F | } } } } } } } } } } } } } } } { ; T $             ; *.*.*.=.... >.>.>.>.",
">.>.>.>.. X.=.&.*.*.;           l 3 g D S S S D > + F  .} } } } } } } } } } } } } }  .Z w K               ; *.*.*.=...X >.>.>.>.",
">.>.>.>.@ O.=.*.*.*.;           l 3 g D S S S D > + F | } } } } } } } } } } } } } } } H w M               ; *.*.*.=.... >.>.>.>.",
">.>.>.>.@ ] =.&.*.*.;           l 5 g D S S S D > + F  .} } } } } } | } } } } } } } | H w N               ; *.*.*.=.... >.>.>.>.",
">.>.>.>.. X.=.&.*.*.;           l 3 g D S S S D > + F | } } } } } } } } | } } } } }  .t N q               ; *.*.*.=.... >.>.>.>.",
">.>.>.>.@ X.=.*.*.=.;           l 3 a ~ S S S S > + F | { } } } } } } } } } } } } } } 9 T o               ; *.*.*.=.X.. >.>.>.>.",
">.>.>.>.. X.=.&.*.*.;           l 3 j j & & v ~ > + F  .} } } } } } } } } } } } } } | 7 I .               ; =.*.*.=.X.  >.>.>.>.",
">.>.>.>.@ X.=.*.*.*.;           l 3 c - x 7 > ~ > + F  .} } } } } } } } } } | } } } J 5 T                 ; *.*.%.=.X.X >.>.>.>.",
">.>.>.>.. X.=.*.*.*.;           l 3 c p & & a D 2 + A } } } } } } } } } } } } } } | 7 V q                 ; *.*.*.=...X >.>.>.>.",
">.>.>.>.. O.=.*.*.*.;           l ; c ~ c v ~ ~ > O H o.} } } } } } } } } } } } } } 9 T .                 ; *.*.*.=.... >.>.>.>.",
">.>.>.>.. X.=.*.*.*.;           l l * 4 4 4 : : 2 N > f A }  . .} } { } } } { } } { ; Y                   ; *.*.*.=...X >.>.>.>.",
">.>.>.>.. O.=.&.*.*.;           . K U V V V V V L M V n q 5 t A { |  . .o. . . . .6 m d                   ; *.*.%.=.... >.>.>.>.",
">.>.>.>.@ X.*.=.=.&.;               % % % % & % .   # 1 n L m w 2 7 a k k k k h > s E .                   ; *.=.*.=.X.. >.>.>.>.",
">.>.>.>.. O.-.] @.=.=                                       - d V V m d b n n m I M .                     - =.X.X.-.... >.>.>.>.",
">.>.>.>.. ] l   $ ] l                                             # - 9 q q 9 1 $                         l R . X Y ..X >.>.>.>.",
">.>.>.>.@ R       9 =.) ,                                                                             , ) +.$     $ ... >.>.>.>.",
">.>.>.>.# W .     q =.=.*.T $                                                                     % T *.-.@.$     % ... >.>.>.>.",
">.>.>.>.  Y K $ , ] =.*.*.-.%.M .                                                             . M @.-.*.&.=.W $ - Q U   >.>.>.>.",
">.>.>.>.>.  9 Q =.-.*.*.*.&.*.-...s                                                         s X.=.=.&.&.*.*.;.*.Q 1   >.>.>.>.>.",
">.>.>.>.>.>.>.. s X.=.=.*.*.*.&.=.=.' 9                                                 9 ' =.=.*.*.*.&.*.-...w   >.>.>.>.>.>.>.",
">.>.>.>.>.>.>.>.  o B %.-.*.&.*.*.&.=.=.W %                                         - W =.=.*.*.*.&.*.-.#.l .   >.>.>.>.>.>.>.>.",
">.>.>.>.>.>.>.>.>.>.  % E =.=.*.*.*.*.*.=.*.I $                                 $ K %.=.*.*.*.*.*.=.=.P $   >.>.>.>.>.>.>.>.>.>.",
">.>.>.>.>.>.>.>.>.>.>.>.  1 ' :.=.*.*.*.*.*.=.#.l .                         . l O.=.*.*.*.*.&.=.=.( -   >.>.>.>.>.>.>.>.>.>.>.>.",
">.>.>.>.>.>.>.>.>.>.>.>.>.>.  r X.-.*.*.*.*.*.*.=...w                     w ] =.=.&.*.*.&.=.-.] w   >.>.>.>.>.>.>.>.>.>.>.>.>.>.",
">.>.>.>.>.>.>.>.>.>.>.>.>.>.>.  o M %.-.*.&.*.*.%.=.=.) 1             1 ) =.=.*.*.*.*.*.-.#.n .   >.>.>.>.>.>.>.>.>.>.>.>.>.>.>.",
">.>.>.>.>.>.>.>.>.>.>.>.>.>.>.>.>.  % R =.=.*.*.*.*.*.=.*.T %     % T *.=.*.*.*.*.*.=.*.P $   >.>.>.>.>.>.>.>.>.>.>.>.>.>.>.>.>.",
">.>.>.>.>.>.>.>.>.>.>.>.>.>.>.>.>.>.>.  1 _ -.=.&.*.*.*.*.=.%.K K @.-.*.&.*.*.&.=.=.( ,   >.>.>.>.>.>.>.>.>.>.>.>.>.>.>.>.>.>.>.",
">.>.>.>.>.>.>.>.>.>.>.>.>.>.>.>.>.>.>.>.>.  r X.-.*.*.*.*.=.@.E ( *.*.*.*.&.=.-...q   >.>.>.>.>.>.>.>.>.>.>.>.>.>.>.>.>.>.>.>.>.",
">.>.>.>.>.>.>.>.>.>.>.>.>.>.>.>.>.>.>.>.>.>.  o B %.-.*.*.&.8     m =.&.*.-.+.l .   >.>.>.>.>.>.>.>.>.>.>.>.>.>.>.>.>.>.>.>.>.>.",
">.>.>.>.>.>.>.>.>.>.>.>.>.>.>.>.>.>.>.>.>.>.>.>.  % R =.-._       % @.-.*.P $   >.>.>.>.>.>.>.>.>.>.>.>.>.>.>.>.>.>.>.>.>.>.>.>.",
">.>.>.>.>.>.>.>.>.>.>.>.>.>.>.>.>.>.>.>.>.>.>.>.>.>.  1 _ *.-     s :.( -   >.>.>.>.>.>.>.>.>.>.>.>.>.>.>.>.>.>.>.>.>.>.>.>.>.>.",
">.>.>.>.>.>.>.>.>.>.>.>.>.>.>.>.>.>.>.>.>.>.>.>.>.>.>.>.  s ! d B ` q   >.>.>.>.>.>.>.>.>.>.>.>.>.>.>.>.>.>.>.>.>.>.>.>.>.>.>.>.",
">.>.>.>.>.>.>.>.>.>.>.>.>.>.>.>.>.>.>.>.>.>.>.>.>.>.>.>.>.  $ K B . >.>.>.>.>.>.>.>.>.>.>.>.>.>.>.>.>.>.>.>.>.>.>.>.>.>.>.>.>.>.",
">.>.>.>.>.>.>.>.>.>.>.>.>.>.>.>.>.>.>.>.>.>.>.>.>.>.>.>.>.>.>.    >.>.>.>.>.>.>.>.>.>.>.>.>.>.>.>.>.>.>.>.>.>.>.>.>.>.>.>.>.>.>."
};
